<?xml version="1.0" encoding="utf-8"?>
<!-- Generator: Adobe Illustrator 22.0.1, SVG Export Plug-In . SVG Version: 6.00 Build 0)  -->
<svg version="1.1" id="Слой_1" xmlns="http://www.w3.org/2000/svg" xmlns:xlink="http://www.w3.org/1999/xlink" x="0px" y="0px"
	 viewBox="0 0 376 24.4" style="enable-background:new 0 0 376 24.4;" xml:space="preserve">
<path style="fill:#010202;" d="M324.1,13H310l-2,11.4h2.6l1.5-8.8h8.8l-1.5,8.8h2.6L324.1,13z"/>
<path style="fill:#010202;" d="M324.3,21.8l-0.5,2.6c2.3,0,3.7-1.2,4.1-3.5l0.9-5.3h7.9l-1.5,8.8h2.6l2-11.4h-13.2l-1.4,7.9
	C325.2,21.5,324.9,21.8,324.3,21.8L324.3,21.8z"/>
<path style="fill:#010202;" d="M343.5,17.4l0.8-4.4h-2.6l-2,11.4h2.6l0.8-4.4h1.8l-0.2,0.9c-0.4,2.3,0.6,3.5,2.9,3.5h7
	c2.3,0,3.7-1.2,4.1-3.5l0.8-4.4c0.4-2.3-0.6-3.5-2.9-3.5h-7c-2.3,0-3.7,1.2-4.1,3.5l-0.2,0.9H343.5z M348.1,16.5
	c0.1-0.6,0.4-0.9,1-0.9h7c0.6,0,0.8,0.3,0.7,0.9l-0.8,4.4c-0.1,0.6-0.4,0.9-1,0.9h-7c-0.6,0-0.8-0.3-0.7-0.9L348.1,16.5z"/>
<path style="fill:#010202;" d="M363.1,20.9l0.8-4.4c0.1-0.6,0.4-0.9,1-0.9h10.5L376,13h-10.5c-2.3,0-3.7,1.2-4.1,3.5l-0.8,4.4
	c-0.4,2.3,0.6,3.5,2.9,3.5h10.5l0.5-2.6h-10.5C363.3,21.8,363,21.5,363.1,20.9L363.1,20.9z"/>
<path style="fill:#C11718;" d="M2.9,7.4L0,24.1h5.6L8.5,7.4c0.2-1.2,0.9-1.9,2.2-1.9H33l1-5.6H11.7C6.7,0,3.8,2.5,2.9,7.4L2.9,7.4z"
	/>
<path style="fill:#C11718;" d="M45.3,9.3l-1,5.6h13l1-5.6H45.3z M40.3,16.7l1.6-9.3c0.2-1.2,0.9-1.9,2.2-1.9h22.3l1-5.6H45.1
	c-4.9,0-7.9,2.5-8.7,7.4l-1.6,9.3c-0.9,4.9,1.2,7.4,6.1,7.4h22.3l1-5.6H41.8C40.6,18.6,40.1,17.9,40.3,16.7L40.3,16.7z"/>
<path style="fill:#C11718;" d="M92.6,14.8l-1.6,9.3h5.6L100.7,0h-5.6l-1.6,9.3H75L76.6,0h-5.6l-4.3,24.1h5.6l1.6-9.3H92.6z"/>
<path style="fill:#C11718;" d="M107.1,16.7l1.6-9.3c0.2-1.2,0.9-1.9,2.2-1.9h22.3l1-5.6h-22.3c-4.9,0-7.9,2.5-8.7,7.4l-1.6,9.3
	c-0.9,4.9,1.2,7.4,6.1,7.4h22.3l1-5.6h-22.3C107.4,18.6,106.9,17.9,107.1,16.7L107.1,16.7z"/>
<path style="fill:#C11718;" d="M145.5,9.3l-1,5.6h13l1-5.6H145.5z M140.5,16.7l1.6-9.3c0.2-1.2,0.9-1.9,2.2-1.9h22.3l1-5.6h-22.3
	c-4.9,0-7.9,2.5-8.7,7.4l-1.6,9.3c-0.9,4.9,1.2,7.4,6.1,7.4h22.3l1-5.6H142C140.8,18.6,140.3,17.9,140.5,16.7L140.5,16.7z"/>
<path style="fill:#C11718;" d="M192.5,5.6c1.2,0,1.7,0.6,1.5,1.9c-0.2,1.2-0.9,1.9-2.2,1.9h-13l-1,5.6h13c4.9,0,7.9-2.5,8.7-7.4
	c0.9-4.9-1.2-7.4-6.1-7.4h-22.3L167,24.1h5.6l3.3-18.6H192.5z"/>
<path style="fill:#C11718;" d="M227.5,7.4c-0.2,1.2-0.9,1.9-2.2,1.9h-13l-1,5.6h13c1.2,0,1.7,0.6,1.5,1.9c-0.2,1.2-0.9,1.9-2.2,1.9
	h-16.7l1.6-9.3H203l-2.6,14.8h22.3c4.9,0,7.9-2.5,8.7-7.4c0.3-1.9,0.2-3.5-0.3-4.6c0.9-1.2,1.6-2.7,1.9-4.6c0.9-4.9-1.2-7.4-6.1-7.4
	h-22.3l-1,5.6h22.3C227.2,5.6,227.7,6.2,227.5,7.4L227.5,7.4z"/>
<path style="fill:#C11718;" d="M233.8,24.1h6.7L261,6.7l-3.1,17.4h5.6L267.7,0h-6.7l-20.5,17.4L243.6,0H238L233.8,24.1z"/>
<path style="fill:#C11718;" d="M274.1,16.7l1.6-9.3c0.2-1.2,0.9-1.9,2.2-1.9h22.3l1-5.6h-22.3c-4.9,0-7.9,2.5-8.7,7.4l-1.6,9.3
	c-0.9,4.9,1.2,7.4,6.1,7.4h22.3l1-5.6h-22.3C274.4,18.6,273.8,17.9,274.1,16.7L274.1,16.7z"/>
</svg>
